<svg width="180" height="47" viewBox="0 0 180 47" fill="none" xmlns="http://www.w3.org/2000/svg">
<g clip-path="url(#clip0_991_330)">
<path d="M3.21263 20.4759C2.62127 20.1216 2.1453 19.6539 1.78111 19.0692C1.42053 18.4882 1.24023 17.8504 1.24023 17.1595V16.4508H5.18142V16.9681C5.18142 17.0036 5.19945 17.0426 5.23551 17.078C5.27157 17.1134 5.30762 17.1311 5.34729 17.1311H13.4532C13.4893 17.1311 13.5253 17.1134 13.565 17.078C13.6047 17.0426 13.6191 17.0071 13.6191 16.9681V15.193C13.6191 15.1576 13.6011 15.1257 13.565 15.0974C13.5289 15.069 13.4893 15.0548 13.4532 15.0548H5.15618C4.45304 15.0548 3.80399 14.8777 3.21263 14.5234C2.62127 14.1691 2.1453 13.7014 1.78111 13.1167C1.42053 12.5357 1.24023 11.8873 1.24023 11.1786V9.02438C1.24023 8.33347 1.42053 7.6957 1.78111 7.11462C2.14169 6.53354 2.61767 6.06585 3.21263 5.70799C3.80399 5.35367 4.45304 5.17651 5.15618 5.17651H13.6515C14.3727 5.17651 15.029 5.35367 15.6239 5.70799C16.2153 6.0623 16.6913 6.53 17.0555 7.11462C17.416 7.6957 17.5963 8.33347 17.5963 9.02438V9.73302H13.6263V9.21572C13.6263 9.18028 13.6083 9.14485 13.5722 9.10588C13.5362 9.07045 13.4965 9.05273 13.4604 9.05273H5.35089C5.31484 9.05273 5.27517 9.07045 5.23911 9.10588C5.20305 9.14131 5.18503 9.18028 5.18503 9.21572V10.9908C5.18503 11.0263 5.20305 11.0582 5.23911 11.0865C5.27517 11.1148 5.31123 11.129 5.35089 11.129H13.6515C14.3727 11.129 15.029 11.3062 15.6239 11.6605C16.2153 12.0148 16.6913 12.4825 17.0555 13.0671C17.416 13.6482 17.5963 14.2966 17.5963 15.0052V17.1595C17.5963 17.8504 17.416 18.4882 17.0555 19.0692C16.6949 19.6503 16.2189 20.118 15.6239 20.4759C15.0326 20.8302 14.3727 21.0073 13.6515 21.0073H5.15618C4.45304 21.0073 3.80399 20.8302 3.21263 20.4759Z" fill="white"/>
<path d="M20.4561 21.0073V16.915L30.7868 9.05627H20.4561V5.18359H36.7833V9.27594L26.4814 17.1347H36.7833V21.0073H20.4561Z" fill="white"/>
<path d="M43.6376 21.0073C42.9165 21.0073 42.2566 20.8302 41.6652 20.4759C41.0739 20.1216 40.6015 19.6539 40.2481 19.0692C39.8948 18.4882 39.7217 17.8504 39.7217 17.1595V11.129H52.1041V9.21925C52.1041 9.18382 52.0861 9.14839 52.0501 9.10941C52.014 9.07398 51.9743 9.05627 51.9383 9.05627H39.7217V5.18359H52.133C52.8542 5.18359 53.5104 5.36075 54.1054 5.71507C54.6967 6.06938 55.1691 6.53708 55.5225 7.1217C55.8722 7.70278 56.0489 8.34055 56.0489 9.03146V21.0073H43.6376ZM43.8323 17.1347H52.1077V14.5978H43.6665V16.9717C43.6665 17.0071 43.6845 17.0461 43.7206 17.0815C43.7566 17.117 43.7927 17.1347 43.8323 17.1347Z" fill="white"/>
<path d="M61.6892 20.4759C61.0978 20.1216 60.6219 19.6539 60.2577 19.0693C59.8971 18.4882 59.7168 17.8504 59.7168 17.1595V0.411011H63.658V5.18719H69.7951V9.05986H63.658V16.9717C63.658 17.0072 63.676 17.0461 63.7121 17.0816C63.7481 17.117 63.7842 17.1347 63.8239 17.1347H69.7951V21.0074H63.658C62.9368 21.0074 62.2769 20.8302 61.6856 20.4759H61.6892Z" fill="white"/>
<path d="M72.7949 21.0074V0H76.7361V11.1326H79.2638L84.8456 5.18364H88.9275V6.38477L82.7362 13.0955L88.9275 19.8063V21.0074H84.8456L79.2638 15.0584H76.7361V21.0074H72.7949Z" fill="white"/>
<path d="M93.3122 20.4759C92.7209 20.1216 92.2449 19.6539 91.8807 19.0692C91.5201 18.4882 91.3398 17.8504 91.3398 17.1595V9.02792C91.3398 8.33701 91.5201 7.69924 91.8807 7.11816C92.2413 6.53708 92.7173 6.06939 93.3122 5.71153C93.9036 5.35721 94.5527 5.18005 95.2558 5.18005H103.751C104.472 5.18005 105.129 5.35721 105.724 5.71153C106.315 6.06584 106.787 6.53354 107.141 7.11816C107.49 7.69924 107.667 8.33701 107.667 9.02792V17.1595C107.667 17.8504 107.49 18.4882 107.141 19.0692C106.787 19.6503 106.315 20.118 105.724 20.4759C105.132 20.8302 104.472 21.0073 103.751 21.0073H95.2558C94.5527 21.0073 93.9036 20.8302 93.3122 20.4759ZM95.4505 17.1347H103.56C103.596 17.1347 103.632 17.117 103.672 17.0815C103.711 17.0461 103.726 17.0107 103.726 16.9717V9.2228C103.726 9.18737 103.708 9.15193 103.672 9.11296C103.636 9.07753 103.596 9.05981 103.56 9.05981H95.4505C95.4144 9.05981 95.3748 9.07753 95.3387 9.11296C95.3027 9.14839 95.2846 9.18737 95.2846 9.2228V16.9717C95.2846 17.0071 95.3027 17.0461 95.3387 17.0815C95.3748 17.117 95.4108 17.1347 95.4505 17.1347Z" fill="white"/>
<path d="M115.304 21.0073L108.972 5.18359H113.165L116.858 13.9139L120.716 5.18359H124.657L128.793 14.0238L132.208 5.18359H136.401L130.347 21.0073H127.322L122.714 11.0227L118.325 21.0073H115.3H115.304Z" fill="white"/>
<path d="M139.96 20.4759C139.369 20.1216 138.893 19.6539 138.529 19.0692C138.168 18.4882 137.988 17.8504 137.988 17.1595V16.4508H141.929V16.9681C141.929 17.0036 141.947 17.0426 141.983 17.078C142.019 17.1134 142.055 17.1311 142.095 17.1311H150.201C150.237 17.1311 150.273 17.1134 150.313 17.078C150.352 17.0426 150.367 17.0071 150.367 16.9681V15.193C150.367 15.1576 150.349 15.1257 150.313 15.0974C150.277 15.069 150.237 15.0548 150.201 15.0548H141.9C141.197 15.0548 140.548 14.8777 139.957 14.5234C139.365 14.1691 138.889 13.7014 138.525 13.1167C138.165 12.5357 137.984 11.8873 137.984 11.1786V9.02438C137.984 8.33347 138.165 7.6957 138.525 7.11462C138.886 6.53354 139.362 6.06585 139.957 5.70799C140.548 5.35367 141.197 5.17651 141.9 5.17651H150.396C151.117 5.17651 151.773 5.35367 152.368 5.70799C152.959 6.0623 153.435 6.53 153.8 7.11462C154.16 7.6957 154.34 8.33347 154.34 9.02438V9.73302H150.37V9.21572C150.37 9.18028 150.352 9.14485 150.316 9.10588C150.28 9.07045 150.241 9.05273 150.205 9.05273H142.099C142.063 9.05273 142.023 9.07045 141.987 9.10588C141.951 9.14131 141.933 9.18028 141.933 9.21572V10.9908C141.933 11.0263 141.951 11.0582 141.987 11.0865C142.023 11.1148 142.059 11.129 142.099 11.129H150.399C151.12 11.129 151.777 11.3062 152.372 11.6605C152.963 12.0148 153.439 12.4825 153.803 13.0671C154.164 13.6482 154.344 14.2966 154.344 15.0052V17.1595C154.344 17.8504 154.164 18.4882 153.803 19.0692C153.443 19.6503 152.967 20.118 152.372 20.4759C151.78 20.8302 151.12 21.0073 150.399 21.0073H141.904C141.201 21.0073 140.552 20.8302 139.96 20.4759Z" fill="white"/>
<path d="M157.229 21.0074V0H161.171V11.1326H163.698L169.28 5.18364H173.362V6.38477L167.171 13.0955L173.362 19.8063V21.0074H169.28L163.698 15.0584H161.171V21.0074H157.229Z" fill="white"/>
<path d="M176.056 3.90102V0H179.997V3.90102H176.056ZM176.056 21.0074V5.18364H179.997V21.0074H176.056Z" fill="white"/>
<path d="M7.82828 43.0529L0 38.5779V36.3422L7.82828 31.8849V34.8682L3.2741 37.4512L7.82828 40.0519V43.0529Z" fill="#06D8B3"/>
<path d="M10.846 42.4789C10.4493 42.2415 10.1356 41.9297 9.90122 41.5435C9.66684 41.1573 9.54785 40.7322 9.54785 40.2715V34.8505C9.54785 34.3899 9.66324 33.9647 9.90122 33.5785C10.1356 33.1923 10.4493 32.877 10.846 32.6431C11.239 32.4057 11.6861 32.2888 12.1801 32.2888H17.8269V28.8342H20.4555V42.8403H12.1801C11.6861 42.8403 11.2426 42.7234 10.846 42.486V42.4789ZM12.3099 40.2503H17.7151C17.7403 40.2503 17.7656 40.2397 17.7908 40.2149C17.816 40.1901 17.8269 40.1653 17.8269 40.1404V34.9745C17.8269 34.9497 17.816 34.9249 17.7908 34.9001C17.7656 34.8753 17.7403 34.8647 17.7151 34.8647H12.3099C12.2847 34.8647 12.2594 34.8753 12.2342 34.9001C12.209 34.9249 12.1981 34.9497 12.1981 34.9745V40.1404C12.1981 40.1653 12.209 40.1901 12.2342 40.2149C12.2594 40.2397 12.2847 40.2503 12.3099 40.2503Z" fill="white"/>
<path d="M22.8975 31.4314V28.8307H25.5261V31.4314H22.8975ZM22.8975 42.8368V32.2888H25.5261V42.8368H22.8975Z" fill="white"/>
<path d="M29.0808 47V44.3993H35.5028C35.528 44.3993 35.5533 44.3887 35.5785 44.3639C35.6038 44.3391 35.6146 44.3143 35.6146 44.2895V42.8333H29.9678C29.4882 42.8333 29.0483 42.7163 28.6553 42.4789C28.2587 42.2416 27.9413 41.9298 27.7034 41.5436C27.4618 41.1573 27.3428 40.7322 27.3428 40.2716V34.8505C27.3428 34.3899 27.4618 33.9647 27.7034 33.5785C27.9449 33.1923 28.2623 32.877 28.6553 32.6431C29.0483 32.4057 29.4882 32.2888 29.9678 32.2888H35.6326C36.1122 32.2888 36.5521 32.4057 36.9451 32.6431C37.3382 32.8805 37.6555 33.1923 37.8899 33.5785C38.1242 33.9683 38.2432 34.3899 38.2432 34.8505V44.4171C38.2432 44.9025 38.1242 45.3383 37.8899 45.728C37.6555 46.1142 37.3418 46.426 36.9451 46.6563C36.5485 46.8866 36.1122 47.0036 35.6326 47.0036H29.0808V47ZM30.0796 40.2503H35.5028C35.528 40.2503 35.5533 40.2397 35.5785 40.2149C35.6038 40.1901 35.6146 40.1653 35.6146 40.1405V34.9745C35.6146 34.9497 35.6038 34.9249 35.5785 34.9001C35.5533 34.8753 35.528 34.8647 35.5028 34.8647H30.0796C30.0544 34.8647 30.0291 34.8753 30.0039 34.9001C29.9786 34.9249 29.9678 34.9497 29.9678 34.9745V40.1405C29.9678 40.1653 29.9786 40.1901 30.0039 40.2149C30.0291 40.2397 30.0544 40.2503 30.0796 40.2503Z" fill="white"/>
<path d="M40.6484 31.4314V28.8307H43.2771V31.4314H40.6484ZM40.6484 42.8368V32.2888H43.2771V42.8368H40.6484Z" fill="white"/>
<path d="M46.9444 42.4789C46.5477 42.2415 46.2304 41.9298 45.9924 41.5435C45.7508 41.1573 45.6318 40.7322 45.6318 40.2716V29.1035H48.2605V32.2853H52.3531V34.8682H48.2605V40.144C48.2605 40.1688 48.2713 40.1936 48.2966 40.2184C48.3218 40.2432 48.347 40.2538 48.3723 40.2538H52.3531V42.8368H48.2605C47.7809 42.8368 47.341 42.7199 46.948 42.4825L46.9444 42.4789Z" fill="white"/>
<path d="M57.4016 42.8368C56.9221 42.8368 56.4822 42.7199 56.0891 42.4825C55.6925 42.2451 55.3788 41.9333 55.1444 41.5471C54.91 41.1609 54.791 40.7357 54.791 40.2751V36.2536H63.0484V34.9816C63.0484 34.9568 63.0376 34.932 63.0123 34.9072C62.9871 34.8824 62.9619 34.8718 62.9366 34.8718H54.791V32.2888H63.0664C63.546 32.2888 63.9859 32.4057 64.3789 32.6431C64.772 32.8805 65.0893 33.1923 65.3237 33.5785C65.5581 33.9683 65.6771 34.3899 65.6771 34.8505V42.8368H57.4016ZM57.5315 40.2538H63.0484V38.5638H57.4197V40.1475C57.4197 40.1723 57.4305 40.1971 57.4557 40.2219C57.481 40.2468 57.5062 40.2574 57.5315 40.2574V40.2538Z" fill="white"/>
<path d="M68.9688 42.479C68.5721 42.2416 68.2548 41.9298 68.0168 41.5436C67.7752 41.1574 67.6562 40.7322 67.6562 40.2716V28.813H70.3029V40.144C70.3029 40.1688 70.3138 40.1936 70.339 40.2184C70.3642 40.2432 70.3895 40.2538 70.4147 40.2538H72.5241V42.8368H70.2669C69.7981 42.8368 69.3654 42.7199 68.9724 42.4825L68.9688 42.479Z" fill="white"/>
<path d="M81.4111 42.8368V40.144L90.0543 29.759L90.9414 29.7413V32.4164L82.2982 42.8191L81.4111 42.8368Z" fill="#FD08BD"/>
<path d="M92.499 43.0883V40.0696L97.0532 37.4866L92.499 34.9036V31.9203L100.349 36.3599V38.6169L92.499 43.0919V43.0883Z" fill="#06D8B3"/>
</g>
<defs>
<clipPath id="clip0_991_330">
<rect width="180" height="47" fill="white"/>
</clipPath>
</defs>
</svg>
